<?xml version="1.0" standalone="no"?>
<!DOCTYPE svg PUBLIC "-//W3C//DTD SVG 20010904//EN"
 "http://www.w3.org/TR/2001/REC-SVG-20010904/DTD/svg10.dtd">
<svg version="1.0" xmlns="http://www.w3.org/2000/svg"
 width="500.000000pt" height="500.000000pt" viewBox="0 0 500.000000 500.000000"
 preserveAspectRatio="xMidYMid meet">
<metadata>
Created by potrace 1.13, written by Peter Selinger 2001-2015
</metadata>
<g transform="translate(0.000000,500.000000) scale(0.100000,-0.100000)"
fill="#000000" stroke="none">
<path d="M3030 4669 c-134 -40 -460 -104 -788 -154 l-43 -7 3 -71 3 -72 63 -7
c123 -14 179 -43 208 -110 18 -41 19 -101 22 -1399 l2 -1356 148 -46 c252 -81
460 -116 681 -117 562 -1 1034 320 1201 818 143 428 21 873 -313 1138 -171
135 -369 205 -587 208 -147 1 -191 -10 -390 -104 l-125 -59 -3 680 c-1 373 -5
679 -10 678 -4 0 -36 -9 -72 -20z m415 -1494 c104 -27 183 -72 261 -150 191
-191 264 -542 198 -944 -32 -190 -91 -324 -188 -428 -109 -117 -247 -159 -369
-113 -76 29 -167 112 -204 188 l-28 57 0 690 0 690 50 11 c72 17 211 16 280
-1z"/>
<path d="M1403 4452 c-72 -26 -128 -65 -164 -115 -51 -70 -62 -105 -63 -197
-1 -74 3 -92 27 -142 32 -65 100 -130 167 -162 70 -32 206 -30 280 5 80 37
125 81 162 157 80 163 15 353 -148 433 -83 41 -183 49 -261 21z"/>
<path d="M1795 3489 c-70 -21 -533 -110 -685 -132 l-165 -23 -3 -70 -3 -70 85
-16 c150 -28 188 -63 206 -190 23 -156 6 -1847 -21 -2077 -14 -126 -42 -214
-76 -240 -40 -32 -117 -51 -244 -60 -123 -9 -146 -16 -178 -57 -26 -32 -28
-111 -6 -173 33 -94 115 -171 182 -171 200 0 689 618 863 1090 36 98 66 229
82 360 16 133 19 1832 3 1836 -5 1 -23 -2 -40 -7z"/>
</g>
</svg>
