<?xml version="1.0" standalone="no"?>
<!DOCTYPE svg PUBLIC "-//W3C//DTD SVG 20010904//EN"
 "http://www.w3.org/TR/2001/REC-SVG-20010904/DTD/svg10.dtd">
<svg version="1.0" xmlns="http://www.w3.org/2000/svg"
 width="702.000000pt" height="300.000000pt" viewBox="0 0 702.000000 300.000000"
 preserveAspectRatio="xMidYMid meet">
<metadata>
Created by potrace 1.13, written by Peter Selinger 2001-2015
</metadata>
<g transform="translate(0.000000,300.000000) scale(0.100000,-0.100000)"
fill="#000000" stroke="none">
<path d="M4885 1604 c-25 -60 -126 -164 -160 -164 -5 0 -23 12 -38 26 l-29 26
-41 -39 c-48 -46 -107 -83 -131 -83 -9 0 -16 -4 -16 -9 0 -15 151 -33 265 -33
163 2 282 36 392 115 23 16 44 35 47 43 3 9 -40 37 -129 83 -73 39 -136 71
-139 71 -3 0 -12 -16 -21 -36z"/>
</g>
</svg>
